<svg width="36" height="36" viewBox="0 0 36 36" fill="none" xmlns="http://www.w3.org/2000/svg">
<path d="M35.0274 14.9427H35.1421C33.8281 6.47836 26.5086 0 17.6761 0C7.91384 0 0 7.91384 0 17.6761C0 11.2853 5.18071 6.10462 11.5714 6.10462C13.8121 6.10462 15.904 6.74148 17.6761 7.84406C20.2135 9.42285 22.095 11.9565 22.8182 14.9427H35.0274Z" fill="#047857"/>
<path d="M35.1421 20.4092H35.0274H22.8182C22.095 23.3953 20.2135 25.929 17.6761 27.5078C15.904 28.6104 13.8121 29.2472 11.5714 29.2472C5.18071 29.2472 0 24.0665 0 17.6758C0 27.438 7.91384 35.3518 17.6761 35.3518C26.5086 35.3518 33.8281 28.8735 35.1421 20.4092Z" fill="#047857"/>
<path d="M12.2092 17.6769C12.2092 21.827 14.394 25.4668 17.6761 27.5089C15.904 28.6115 13.8121 29.2484 11.5714 29.2484C5.18072 29.2484 0 24.0676 0 17.6769C0 11.2862 5.18072 6.10547 11.5714 6.10547C13.8121 6.10547 15.904 6.74233 17.6761 7.8449C14.394 9.88705 12.2092 13.5268 12.2092 17.6769Z" fill="#81BBAB"/>
</svg>
