<svg width="225" height="170" viewBox="0 0 225 170" fill="none" xmlns="http://www.w3.org/2000/svg">
<g clip-path="url(#clip0_15_1626)">
<path fill-rule="evenodd" clip-rule="evenodd" d="M76.9356 2.896C64.2777 2.896 52.1388 7.92423 43.1884 16.8745L0 60.0627V79.8315C0 93.7981 5.9993 106.363 15.5615 115.091C5.9993 123.819 0 136.384 0 150.351V170.119L43.1884 213.308C52.1388 222.258 64.2777 227.286 76.9356 227.286C90.9022 227.286 103.467 221.287 112.195 211.725C120.923 221.287 133.488 227.286 147.455 227.286C160.113 227.286 172.252 222.258 181.202 213.308L224.39 170.119V150.351C224.39 136.384 218.391 123.819 208.829 115.091C218.391 106.363 224.39 93.7981 224.39 79.8315V60.0627L181.202 16.8745C172.252 7.92423 160.113 2.896 147.455 2.896C133.488 2.896 120.923 8.89528 112.195 18.4575C103.467 8.89528 90.9022 2.896 76.9356 2.896ZM144.501 115.091C143.963 114.6 143.435 114.096 142.918 113.579L112.195 82.8563L81.4727 113.579C80.9555 114.096 80.4276 114.6 79.8897 115.091C80.4276 115.582 80.9555 116.086 81.4727 116.603L112.195 147.326L142.918 116.603C143.435 116.086 143.963 115.582 144.501 115.091ZM124.661 170.119V179.561C124.661 192.149 134.866 202.354 147.455 202.354C153.5 202.354 159.297 199.953 163.572 195.678L199.458 159.792V150.351C199.458 137.762 189.253 127.557 176.665 127.557C170.62 127.557 164.822 129.959 160.547 134.233L124.661 170.119ZM99.7291 170.119L63.843 134.233C59.5683 129.959 53.7709 127.557 47.7257 127.557C35.1372 127.557 24.9322 137.762 24.9322 150.351V159.792L60.8182 195.678C65.0928 199.953 70.8905 202.354 76.9356 202.354C89.5239 202.354 99.7291 192.149 99.7291 179.561V170.119ZM99.7291 50.6217V60.0627L63.843 95.9489C59.5683 100.224 53.7709 102.625 47.7257 102.625C35.1372 102.625 24.9322 92.4198 24.9322 79.8315V70.3903L60.8182 34.5043C65.0928 30.2297 70.8905 27.8283 76.9356 27.8283C89.5239 27.8283 99.7291 38.0332 99.7291 50.6217ZM160.547 95.9489L124.661 60.0627V50.6217C124.661 38.0332 134.866 27.8283 147.455 27.8283C153.5 27.8283 159.297 30.2297 163.572 34.5043L199.458 70.3903V79.8315C199.458 92.4198 189.253 102.625 176.665 102.625C170.62 102.625 164.822 100.224 160.547 95.9489Z" fill="url(#paint0_linear_15_1626)"/>
</g>
<defs>
<linearGradient id="paint0_linear_15_1626" x1="0" y1="115.091" x2="224.39" y2="115.091" gradientUnits="userSpaceOnUse">
<stop stop-color="#0647DF"/>
<stop offset="1" stop-color="#DDDDDD"/>
</linearGradient>
<clipPath id="clip0_15_1626">
<rect width="224.39" height="230" fill="white"/>
</clipPath>
</defs>
</svg>
