<svg width="30" height="30" viewBox="0 0 30 30" fill="none" xmlns="http://www.w3.org/2000/svg"><g clip-path="url(#clip0_15_1370)"><path fill-rule="evenodd" clip-rule="evenodd" d="M10.0352 0.377686C8.38417 0.377686 6.80083 1.03354 5.6334 2.20097L0.00012207 7.83421V10.4127C0.00012207 12.2345 0.782639 13.8734 2.02989 15.0118C0.782639 16.1502 0.00012207 17.7892 0.00012207 19.6109V22.1894L5.6334 27.8227C6.80083 28.9901 8.38417 29.646 10.0352 29.646C11.8569 29.646 13.4959 28.8635 14.6343 27.6162C15.7727 28.8635 17.4116 29.646 19.2333 29.646C20.8844 29.646 22.4677 28.9901 23.6351 27.8227L29.2684 22.1894V19.6109C29.2684 17.7892 28.4859 16.1502 27.2387 15.0118C28.4859 13.8734 29.2684 12.2345 29.2684 10.4127V7.83421L23.6351 2.20097C22.4677 1.03354 20.8844 0.377686 19.2333 0.377686C17.4116 0.377686 15.7727 1.1602 14.6343 2.40745C13.4959 1.1602 11.8569 0.377686 10.0352 0.377686ZM18.848 15.0118C18.7779 14.9478 18.709 14.882 18.6415 14.8146L14.6343 10.8073L10.627 14.8146C10.5595 14.882 10.4907 14.9478 10.4205 15.0118C10.4907 15.0758 10.5595 15.1416 10.627 15.2091L14.6343 19.2164L18.6415 15.2091C18.709 15.1416 18.7779 15.0758 18.848 15.0118ZM16.2603 22.1894V23.4209C16.2603 25.0628 17.5914 26.394 19.2333 26.394C20.0218 26.394 20.778 26.0807 21.3356 25.5232L26.0164 20.8424V19.6109C26.0164 17.9689 24.6853 16.6378 23.0433 16.6378C22.2549 16.6378 21.4986 16.9511 20.9411 17.5086L16.2603 22.1894ZM13.0083 22.1894L8.32746 17.5086C7.7699 16.9511 7.01371 16.6378 6.22521 16.6378C4.58324 16.6378 3.25215 17.9689 3.25215 19.6109V20.8424L7.93293 25.5232C8.49049 26.0807 9.24671 26.394 10.0352 26.394C11.6771 26.394 13.0083 25.0628 13.0083 23.4209V22.1894ZM13.0083 6.60277V7.83421L8.32746 12.515C7.7699 13.0726 7.01371 13.3858 6.22521 13.3858C4.58324 13.3858 3.25215 12.0547 3.25215 10.4127V9.18129L7.93293 4.5005C8.49049 3.94295 9.24671 3.62972 10.0352 3.62972C11.6771 3.62972 13.0083 4.9608 13.0083 6.60277ZM20.9411 12.515L16.2603 7.83421V6.60277C16.2603 4.9608 17.5914 3.62972 19.2333 3.62972C20.0218 3.62972 20.778 3.94295 21.3356 4.5005L26.0164 9.18129V10.4127C26.0164 12.0547 24.6853 13.3858 23.0433 13.3858C22.2549 13.3858 21.4986 13.0726 20.9411 12.515Z" fill="#0647DF"></path></g><defs><clipPath id="clip0_15_1370"><rect width="29.2683" height="30" fill="white"></rect></clipPath></defs></svg>