<svg width="40" height="30" viewBox="0 0 40 30" fill="none" xmlns="http://www.w3.org/2000/svg">
<path d="M39.1465 23.6279C39.8409 26.1918 38.3254 28.8331 35.7615 29.5275C33.1977 30.2219 30.5563 28.7063 29.862 26.1425L26.2183 12.6888C26.304 13.1164 26.349 13.5587 26.349 14.0115C26.349 17.7071 23.3531 20.703 19.6575 20.703C15.9619 20.703 12.966 17.7071 12.966 14.0115C12.966 13.5587 13.011 13.1164 13.0967 12.6888L9.45298 26.1425C8.75861 28.7063 6.11729 30.2219 3.55343 29.5275C0.989579 28.8331 -0.525931 26.1918 0.168446 23.6279L5.60529 3.55344C6.29966 0.98958 8.94098 -0.52593 11.5048 0.168447C14.0687 0.862824 15.5842 3.50414 14.8898 6.068L13.328 11.8349C14.2312 9.20782 16.7239 7.32003 19.6575 7.32003C22.5911 7.32003 25.0838 9.20782 25.987 11.8349L24.4251 6.068C23.7307 3.50414 25.2463 0.862823 27.8101 0.168446C30.374 -0.525931 33.0153 0.98958 33.7097 3.55343L39.1465 23.6279Z" fill="#0F2501"/>
</svg>
